<!-- <svg xmlns="http://www.w3.org/2000/svg" viewBox="0 0 32 32">
  <rect width="32" height="32" fill="#FF4F00"/>
  
  <rect x="0" y="0" width="32" height="32" fill="none" stroke="#1A1C1E" stroke-width="2"/>
  
  <g transform="translate(16, 16)">
    <path d="M -5,-3 L 0,-6 L 5,-3 L 0,0 Z" fill="#FFFFFF" stroke="#1A1C1E" stroke-width="1"/>
    
    <path d="M -5,-3 L -5,3 L 0,6 L 0,0 Z" fill="#E0E0E0" stroke="#1A1C1E" stroke-width="1"/>
    
    <path d="M 5,-3 L 5,3 L 0,6 L 0,0 Z" fill="#C0C0C0" stroke="#1A1C1E" stroke-width="1"/>
  </g>
</svg> -->

<svg xmlns="http://www.w3.org/2000/svg" viewBox="0 0 32 32" stroke-width="1.5" stroke-linecap="round">
  <rect width="32" height="32" fill="#FF4F00"/>
  <rect x="0" y="0" width="32" height="32" fill="none" stroke="#1A1C1E" stroke-width="1"/>
  
  <!-- <path x="4" y="4" stroke="#FFFFFF" fill="#FF4F00" d="M21 8a2 2 0 0 0-1-1.73l-7-4a2 2 0 0 0-2 0l-7 4A2 2 0 0 0 3 8v8a2 2 0 0 0 1 1.73l7 4a2 2 0 0 0 2 0l7-4A2 2 0 0 0 21 16Z"></path>
  <path x="4" y="4" stroke="#FFFFFF" fill="#FF4F00" d="m3.3 7 8.7 5 8.7-5"></path>
  <path x="4" y="4" stroke="#FFFFFF" fill="#FF4F00" d="M12 22V12"></path> -->
  <g transform="matrix(1, 0, 0, 1, 4, 3.998975)">
    <path x="4" y="4" stroke="#FFFFFF" fill="#FF4F00" d="M21 8a2 2 0 0 0-1-1.73l-7-4a2 2 0 0 0-2 0l-7 4A2 2 0 0 0 3 8v8a2 2 0 0 0 1 1.73l7 4a2 2 0 0 0 2 0l7-4A2 2 0 0 0 21 16Z"></path>
    <path x="4" y="4" stroke="#FFFFFF" fill="#FF4F00" d="m3.3 7 8.7 5 8.7-5"></path>
    <path x="4" y="4" stroke="#FFFFFF" fill="#FF4F00" d="M12 22V12"></path>
  </g>
</svg>

